<svg xmlns="http://www.w3.org/2000/svg" viewBox="0 0 256 256">
  <defs>
    <linearGradient id="hoodie" x1="0%" y1="0%" x2="100%" y2="100%">
      <stop offset="0%" stop-color="#253f55"/>
      <stop offset="100%" stop-color="#0f1b26"/>
    </linearGradient>
    <linearGradient id="screen" x1="0%" y1="0%" x2="100%" y2="100%">
      <stop offset="0%" stop-color="#7ee7ff"/>
      <stop offset="100%" stop-color="#137aa5"/>
    </linearGradient>
  </defs>
  <ellipse cx="128" cy="222" rx="80" ry="20" fill="#071116" opacity=".34"/>
  <path d="M65 218c8-60 32-91 63-91s55 31 63 91z" fill="url(#hoodie)" stroke="#071116" stroke-width="8" stroke-linejoin="round"/>
  <path d="M87 93c0-44 22-72 43-72s43 28 43 72c0 42-20 67-43 67s-43-25-43-67z" fill="#d8a06d" stroke="#3a2218" stroke-width="7"/>
  <path d="M91 73c8-38 29-55 59-44 15 6 23 21 27 44-24-15-57-16-86 0z" fill="#1d1b1a"/>
  <path d="M90 80c-3-26 11-47 35-54-16 18-18 39-14 56z" fill="#f0c18d" opacity=".35"/>
  <rect x="90" y="86" width="34" height="24" rx="9" fill="none" stroke="#071116" stroke-width="7"/>
  <rect x="135" y="86" width="34" height="24" rx="9" fill="none" stroke="#071116" stroke-width="7"/>
  <path d="M124 98h12" stroke="#071116" stroke-width="6" stroke-linecap="round"/>
  <circle cx="107" cy="98" r="4" fill="#071116"/>
  <circle cx="152" cy="98" r="4" fill="#071116"/>
  <path d="M113 130c10 8 24 8 34 0" fill="none" stroke="#5b2e25" stroke-width="6" stroke-linecap="round"/>
  <rect x="82" y="160" width="94" height="52" rx="10" fill="#071116"/>
  <rect x="91" y="169" width="76" height="32" rx="5" fill="url(#screen)"/>
  <path d="M102 184h21M132 184h22M108 193h38" stroke="#dffbff" stroke-width="4" stroke-linecap="round"/>
</svg>
